<svg width="14" height="14" viewBox="0 0 14 14" fill="none" xmlns="http://www.w3.org/2000/svg">
<path d="M6.99398 0.333496C3.31398 0.333496 0.333984 3.32016 0.333984 7.00016C0.333984 10.6802 3.31398 13.6668 6.99398 13.6668C10.6807 13.6668 13.6673 10.6802 13.6673 7.00016C13.6673 3.32016 10.6807 0.333496 6.99398 0.333496ZM7.00065 12.3335C4.05398 12.3335 1.66732 9.94683 1.66732 7.00016C1.66732 4.0535 4.05398 1.66683 7.00065 1.66683C9.94732 1.66683 12.334 4.0535 12.334 7.00016C12.334 9.94683 9.94732 12.3335 7.00065 12.3335ZM9.33398 6.3335C9.88732 6.3335 10.334 5.88683 10.334 5.3335C10.334 4.78016 9.88732 4.3335 9.33398 4.3335C8.78065 4.3335 8.33398 4.78016 8.33398 5.3335C8.33398 5.88683 8.78065 6.3335 9.33398 6.3335ZM4.66732 6.3335C5.22065 6.3335 5.66732 5.88683 5.66732 5.3335C5.66732 4.78016 5.22065 4.3335 4.66732 4.3335C4.11398 4.3335 3.66732 4.78016 3.66732 5.3335C3.66732 5.88683 4.11398 6.3335 4.66732 6.3335ZM7.00065 10.6668C8.55398 10.6668 9.87399 9.6935 10.4073 8.3335H3.59398C4.12732 9.6935 5.44732 10.6668 7.00065 10.6668Z" fill="#4CC57E"/>
</svg>
